<svg version="1.2" baseProfile="tiny-ps" xmlns="http://www.w3.org/2000/svg" viewBox="0 0 1041 1503" width="1041" height="1503">
	<title>Sherwin_Williams-svg</title>
	<style>
		tspan { white-space:pre }
		.shp0 { fill: #0067b1 } 
		.shp1 { fill: #ef4135 } 
		.shp2 { fill: #ffffff } 
	</style>
	<g id="g10">
		<path id="path172" class="shp0" d="M110.08 1066.8C76.49 1066.8 37.26 1081.93 37.26 1124.58C37.26 1152.35 56.67 1163.02 75.43 1173.34C90.81 1181.78 105.31 1189.75 105.31 1206.65C105.31 1228.89 85.45 1238.84 65.75 1238.84C48.3 1238.84 31.95 1232.28 17.82 1225.91C16.95 1228.73 9.29 1253.62 8.49 1256.23C28.07 1263.09 46.59 1266.7 63.46 1266.7C87.68 1266.7 144 1260.46 144 1202.73C144 1172.62 122.65 1160.25 103.81 1149.32C89.48 1141 75.94 1133.15 75.94 1118.67C75.94 1102.08 93.52 1094.64 110.93 1094.64C124.16 1094.64 138.74 1098.26 151.38 1104.3C152.17 1101.6 159.17 1077.6 159.93 1075.03C145.79 1069.64 129.1 1066.8 110.08 1066.8" />
		<path id="path176" class="shp0" d="M182.38 1108.06L213.72 1108.06L200.51 1170.11L263.62 1170.11L276.83 1108.06L308.16 1108.06L275.49 1261.63L244.15 1261.63L258.47 1194.3L195.36 1194.3L181.04 1261.63L149.71 1261.63L182.38 1108.06Z" />
		<path id="path184" class="shp0" d="M334.86 1108.06L426.84 1108.06L422.14 1132.25L361.04 1132.25L352.99 1170.11L407.6 1170.11L402.67 1194.3L347.84 1194.3L338.67 1237.42L400.43 1237.42L395.07 1261.63L301.96 1261.63L334.86 1108.06Z" />
		<path id="path192" fill-rule="evenodd" class="shp0" d="M490.68 1108.06C519.56 1108.06 552.91 1107.63 552.91 1144.36C552.91 1170.75 532.75 1184.84 507.26 1185.27L507.26 1185.73C515.75 1186.15 521.12 1191.44 523.15 1199.81L538.13 1261.63L505.23 1261.63L497.62 1225.54C494.04 1209.26 494.93 1197.82 477.93 1197.82L466.05 1197.82L452.41 1261.63L421.09 1261.63L453.76 1108.06L490.68 1108.06ZM483.08 1173.62C499.86 1173.62 520.23 1168.56 520.23 1148.32C520.23 1132.25 506.13 1132.25 493.36 1132.25L480.38 1132.25L471.66 1173.62L483.08 1173.62Z" />
		<path id="path200" class="shp0" d="M570.92 1108.06L602.26 1108.06L606.96 1225.76L607.41 1225.76L659.33 1108.06L701.4 1108.06L702.07 1225.76L702.53 1225.76L757.8 1108.06L790.26 1108.06L715.71 1261.63L676.54 1261.63L674.98 1138.86L674.55 1138.86L619.49 1261.63L580.77 1261.63L570.92 1108.06L570.92 1108.06Z" />
		<path id="path208" class="shp0" d="M807.47 1108.06L840.16 1108.06L807.26 1261.63L774.58 1261.63L807.47 1108.06Z" />
		<path id="path216" class="shp0" d="M869.04 1108.06L908.66 1108.06L941.99 1224.66L942.46 1224.66L967.97 1108.06L997.52 1108.06L963.72 1261.63L923.43 1261.63L890.76 1143.93L890.3 1143.93L865.47 1261.63L835.48 1261.63L869.04 1108.06Z" />
		<path id="path224" fill-rule="evenodd" class="shp0" d="M1018.54 1458.76C1030.48 1458.76 1040.21 1468.48 1040.21 1480.43C1040.21 1492.39 1030.48 1502.11 1018.54 1502.11C1006.58 1502.11 996.88 1492.39 996.88 1480.43C996.88 1468.48 1006.58 1458.76 1018.54 1458.76ZM1018.54 1497.31C1027.11 1497.31 1033.97 1490.45 1033.97 1480.43C1033.97 1470.46 1027.11 1463.55 1018.54 1463.55C1009.84 1463.55 1003.11 1470.46 1003.11 1480.43C1003.11 1490.45 1009.84 1497.31 1018.54 1497.31ZM1018.9 1468.3C1025.04 1468.3 1028.52 1470.1 1028.52 1475.5C1028.52 1479.89 1025.86 1481.64 1022.14 1481.93L1028.52 1492.39L1023.21 1492.39L1017.48 1482.17L1015.01 1482.17L1015.01 1492.39L1009.84 1492.39L1009.84 1468.3L1018.9 1468.3ZM1019.19 1478.21C1021.67 1478.21 1023.34 1477.8 1023.34 1475.03C1023.34 1472.57 1020.71 1472.27 1018.67 1472.27L1015.01 1472.27L1015.01 1478.21L1019.19 1478.21Z" />
		<path id="path228" class="shp0" d="M156.78 1457.1L153.89 1456.62C153.89 1456.62 153.12 1309.83 153.11 1307.43L105.09 1307.43C104.47 1308.93 43.62 1457.08 43.62 1457.08L40.73 1456.66C40.73 1456.66 35.27 1309.75 35.17 1307.43L0.39 1307.43C0.54 1309.97 11.83 1498.94 11.96 1501.21L56.05 1501.21C56.68 1499.71 121.24 1345.09 121.24 1345.09L124.14 1345.55C124.14 1345.55 125.95 1498.81 125.98 1501.21L170.57 1501.21C171.22 1499.79 256.6 1310.82 258.13 1307.43L222.23 1307.43C221.58 1308.89 156.78 1457.1 156.78 1457.1" />
		<path id="path232" class="shp0" d="M257.93 1346.5L288.36 1346.5L257.72 1500.08L227.29 1500.08L257.93 1346.5Z" />
		<path id="path256" class="shp0" d="M315.41 1346.5L344.59 1346.5L318.54 1475.89L375.62 1475.89L370.64 1500.08L284.56 1500.08L315.41 1346.5L315.41 1346.5Z" />
		<path id="path280" class="shp0" d="M419.6 1346.5L448.78 1346.5L422.73 1475.89L479.82 1475.89L474.83 1500.08L388.76 1500.08L419.6 1346.5L419.6 1346.5Z" />
		<path id="path304" class="shp0" d="M522.33 1346.5L552.76 1346.5L522.12 1500.08L491.71 1500.08L522.33 1346.5Z" />
		<path id="path328" fill-rule="evenodd" class="shp0" d="M657.79 1346.51L684.24 1500.09L655.09 1500.09L650.07 1464.87L588.17 1464.87L569.64 1500.09L537.33 1500.09L625.5 1346.51L657.79 1346.51ZM601.1 1440.67L646.11 1440.67L636.95 1373.8L636.1 1373.8L601.1 1440.67Z" />
		<path id="path352" class="shp0" d="M730.79 1346.5L778.93 1346.5L788.72 1457.17L789.15 1457.17L846.45 1346.5L895.02 1346.5L863.96 1500.08L833.11 1500.08L860.61 1372.91L860.2 1372.91L794.35 1500.08L766.42 1500.08L754.75 1372.91L754.34 1372.91L727.68 1500.08L699.94 1500.08L730.79 1346.5L730.79 1346.5Z" />
		<path id="path376" class="shp0" d="M991.76 1375.99C983.2 1371.37 972.17 1368.07 961.53 1368.07C951.13 1368.07 937.16 1372.47 937.16 1385.67C937.16 1410.32 986.75 1408.77 986.75 1451.47C986.75 1489.08 958.83 1502.71 926.93 1502.71C912.99 1502.71 898.61 1499.2 885.48 1494.15L892.99 1467.95C904.23 1473.45 916.1 1478.52 928.6 1478.52C942.58 1478.52 956.33 1471.03 956.33 1454.54C956.33 1426.81 906.74 1431.22 906.74 1390.28C906.74 1357.95 932.99 1343.88 960.91 1343.88C973.64 1343.88 986.75 1345.62 998.63 1350.69L991.76 1375.99L991.76 1375.99Z" />
		<path id="path400" class="shp0" d="M423.69 1009.05L419.14 1008.37L414.74 1006.91L411.41 1005.03L407.69 1001.85L404.49 997.54L402.32 993.04L400.87 987.97L400.25 984.33L400.25 978.34L401.36 967.41L404.64 947.31L410.25 920.08L414.41 898.52L415.81 888.61L415.32 887.31L412.53 886L401.11 881.31L385.02 873.63L367.23 863.04L356.35 855.79L342.1 844.9L333.59 837.22L324.41 828.13L317.34 820.44L306.62 807.92L304.3 804.88L299.8 799.13L288.93 783.85L286.99 780.71L283.08 774.75L282.06 773.99L281.73 774.52L281.86 778.28L282.98 788.73L285.15 803.05L290.86 828.33L292.31 838.19L292.55 848.1L292.22 853.27L291.2 858.4L289.46 863.53L287.72 866.52L285.26 870L281.77 873.34L278.06 875.8L274.52 877.25L270.99 877.93L266.64 877.84L263.17 876.81L260.07 875.22L256.74 872.61L254.27 870.05L251.37 865.07L249.19 859.02L248.23 851.82L248.23 842.4L249.1 834.13L252.96 814.69L257.56 796.37L258.95 788.73L259.59 782.69L259.97 781.19L260.99 771.32L261.27 753.78L260.7 742.04L260.32 738.73L259.92 732.94L258.09 722.44L257.41 718.62L253.4 702.77L249.67 687.2L246.78 665.45L245.76 649.64L245.9 637.6L246.05 635.86L246.1 628.89L246.44 620.63L246.78 618.46L247.22 611.78L249.34 595.97L252.1 581.27L255.15 568.41L259.64 553.38L263.26 542.65L269.93 526.21L276.45 512.33L284.29 498.12L289.07 490.19L297.77 477.13L307.78 463.94L315.75 454.37L317.59 452.47L320.21 449.58L330.26 439.43L332.53 437.4L341.71 429.12L354.72 418.97L360.51 414.86L367.18 410.22L367.71 409.3L367.47 408.04L365.06 403.64L363.75 399.39L362.78 392.77L362.93 387.84L364.48 381.21L366.8 375.89L370.56 369.66L374.14 365.11L381.45 358.34L385.16 355.69L385.8 354.67L385.45 353.7L382.6 351.34L379.7 347.32L378.25 344.18L377.72 341.72L377.58 337.07L378.4 332.87L380.43 327.89L382.6 324.4L385.94 320.64L388.83 318.02L394.2 314.54L399.32 312.36L406.91 310.19L414.7 308.93L420.35 308.8L426.1 308.55L426.54 308.02L426.2 307.01L424.51 304.54L422.63 300.62L421.76 297L421.7 293.47L422.19 290.66L423.49 287.57L425.52 284.52L428.13 281.91L432.15 279.44L435.48 278.28L438.03 277.75L443.85 277.75L447.95 278.57L454.53 280.89L460.18 283.94L463.9 286.41L469.75 291.34L473.91 295.69L480.73 304.63L484.64 310.92L487.29 315.85L488.11 316.72L488.46 315.8L488.16 311.06L486.23 300.47L484.2 285.29L482.46 274.66L480 265.03L478.56 261.16L476.86 258.65L474.98 257.11L472.65 255.17L471.21 252.52L470.48 248.99L469.99 245.7L468.69 243.77L466.08 240.57L462.02 236.08L460.23 234.91L458.49 234.78L455.74 235.55L453.85 235.31L451.92 234L448.98 230.86L447.81 230.38L446.55 230.71L443.37 233.32L442.11 233.81L440.56 233.56L438.58 232.26L432.63 226.16L423.64 214.32L415.52 201.41L411.74 194.3L407.55 184.64L402.57 171.05L400.67 168.05L394.73 161.09L384.05 150.02L371.97 137.45L369.26 135.56L367.09 134.84L363.36 134.21L361.57 133.2L359.98 130.68L358.82 126.62L358.14 121.25L358.29 117.63L359.84 109.45L361.57 104.19L364.77 96.7L369.7 87.22L375.93 76.34L381.87 67.54L388.26 59.27L396.82 49.12L397.93 47.96L404.36 41.43L415.37 31.71L420.99 27.32L427.4 22.57L433.65 18.52L445.2 11.41L458.35 5.31L468.89 1.98L477.2 0.29L483.73 0L489.48 0.82L493.45 2.13L495.52 3.58L496.53 5.12L497.01 8.22L496.48 11.74L496.86 13.29L498.62 15.56L509.02 27.36L514.07 32.73L525.29 45.15L530.37 50.38L533.08 52.11L540.95 55.07L548.49 58.69L554.39 62.17L563.95 68.84L572.82 75.95L584.3 87.07L588.33 92.15L589.15 93.69L589.05 95.29L588.18 96.94L585.77 99.84L585.91 101.23L587.35 103.17L590.35 107.28L591.17 109.51L590.94 111.29L589.53 114L589.38 115.15L590.68 117.24L595.47 122.31L598.19 124.63L601.04 126.24L604.81 126.86L606.73 128.03L608.76 131.11L609.65 133.34L610.12 136.34L609.79 139.87L608.76 143.59L606.59 149.35L602.1 158.19L596.16 168.29L590.06 177.15L582.09 187.73L574.56 196.44L567 204.7L556.56 214.71L554.14 216.64L551.82 218.76L539.36 228.63L528.48 236.37L527.27 238.05L526.79 240.04L526.2 282.11L526.06 290.95L525.09 315.23L525.29 315.8L525.97 315.8L527.55 313.09L529.49 309.42L531.78 305.69L534.42 301.64L538.78 296.12L544 290.46L545.4 289.31L549.46 286.11L554.97 282.64L559.27 280.61L565.03 278.86L569.44 278.04L575.51 278.42L578.81 279.3L582.85 281.18L586 283.36L589.33 286.99L591.08 290.37L592.38 294.33L592.62 298.5L591.8 301.97L590.64 304.82L588.66 308.11L588.66 308.6L589.43 308.93L596.39 308.93L602.2 310.04L608.09 312.36L611.38 314.39L614.9 317.82L616.88 320.82L618.77 325.04L619.55 328.62L619.69 332.2L618.92 336.06L617.48 339.16L615.2 342.25L611.85 344.95L608.67 346.74L608.33 347.36L608.92 348L612.98 349.65L615.82 351.19L620.87 354.14L629.95 360.95L637.05 368.35L640.38 373.28L642.7 378.31L644.01 383.05L644.49 386.67L644.34 391.37L643.44 396.01L641.54 400.55L639.11 404.28L638.79 405.48L639.28 406.45L662.57 422.45L672.72 430.29L678.71 435.46L682.72 438.7L693.6 449.14L702.78 459.39L708.99 466.64L715.93 475.34L722.31 484.24L730.72 497.29L742.32 517.7L750.46 535.68L754.55 546.66L755.52 549.46L757.46 554.97L757.89 556.9L761.47 568.65L762.1 571.31L764.66 582.58L767.61 601.53L769.2 616.03L770.26 632.95L770.11 651.23L768.81 676.03L767.31 690.05L766.39 696.1L764.89 704.9L764.08 710.46L762.21 722.11L761.47 731.88L761.5 734.88L761.41 736.52L761.47 755.85L762.14 764.8L762.53 769.05L762.44 770.31L762.82 776.01L762.59 781.19L762.92 782.79L762.44 784.24L760.74 799.27L759.29 807.69L757.16 817.55L756.49 819.77L753.5 830.36L750.05 840.7L748.42 845.69L747.59 846.51L746.23 846.51L745.29 845.54L744.11 841.86L742.03 829.87L738.42 815.8L730.33 787.32L729.57 780.27L729.22 779.69L728.84 779.69L727.87 780.8L724.5 786.6L715.25 799.56L705.93 811.12L701.05 816.62L687.93 829.97L684.07 833.5L674.8 841.76L667.25 847.95L656.38 856.08L642.6 865.21L630.42 872.46L617.82 878.84L603.36 885.09L589.72 889.87L576.14 893.79L565.3 896.54L549.12 899.74L531.73 902L517.5 903.17L495.19 903.02L487.78 902.44L483.73 902.3L464.73 899.98L445.25 895.95L432.82 892.72L432.19 893.21L431.95 893.89L432.15 897.74L432.63 900.76L434.08 910.08L443.07 954.71L444.37 963.17L445.54 970.8L445.83 982.31L445.49 987.73L444.19 993.49L441.72 998.94L438.68 1002.71L435.48 1005.61L432.48 1007.35L428.18 1008.66L423.69 1009.05L423.69 1009.05Z" />
		<path id="path404" class="shp1" d="M425 997.44L421.66 997.34L417.94 996.18L415.23 994.45L412.76 991.44L410.88 987.43L409.62 981.78L409.33 977.29L410.34 965.97L412.03 955.83L413.69 947.4L413.92 945.23L416.49 932.41L419.34 915.78L419.73 913.03L420.84 908.04L423.07 895.48L423.45 895L423.88 895.77L425.09 903.8L426.98 917.48L433.02 948.67L433.79 953.69L435.44 963.94L436.25 972.78L436.45 979.89L435.63 986.22L434.17 990.57L432.15 993.57L429.88 995.61L426.59 997.06L425 997.44L425 997.44Z" />
		<path id="path408" class="shp0" d="M743.3 980.18L738.12 979.5L734.34 978.34L731.07 976.32L727.71 973.26L725.12 969.26L723.51 965.68L722.52 961.51L722.12 955.52L722.27 953.79L722.12 952.49L722.99 944.21L725.83 930.24L729.18 917.77L731 911.72L733.53 902.73L738.85 884.55L743.04 865.5L745.13 853.23L745.71 852.16L746.58 851.73L747.4 851.91L747.97 852.84L748.51 855.88L748.94 861.98L749.67 871.4L750.77 879.72L751.22 883.88L753.34 896.54L754.11 901.38L757.16 915.68L761.46 936.96L762.54 947.16L762.72 954.94L762.25 961.22L761.02 965.53L759 969.93L756.82 972.99L754.36 975.78L751.8 977.62L748.51 979.21L745.18 980.04L743.3 980.18L743.3 980.18Z" />
		<path id="path412" class="shp0" d="M311.16 972.49L305.66 972.35L301 971.23L296.56 969.06L293.66 966.74L291.1 964.04L288.49 959.83L287.04 955.91L285.83 951.27L285.2 944.36L285.3 938.7L286.75 927.53L290.09 911L293.57 895.92L296.27 885.23L298.06 876.77L299.32 871.35L300.67 864.59L305.12 843.5L308.11 824.55L308.45 820.59L309.23 819.28L309.95 819.09L310.77 819.43L311.21 820.97L312.71 833.06L315.75 851.64L321.99 881.27L324.88 893.21L325.17 894.75L326.43 900.31L328.51 911.15L329.87 917.82L331.75 931.3L332.19 940.16L331.9 947.54L330.78 953.5L328.9 958.96L327.31 962L324.7 965.44L323 967.18L322.14 968.05L317.35 970.81L313.53 972.11L311.16 972.49Z" />
		<path id="path416" class="shp1" d="M743.15 969.16L739.7 968.92L737.58 968.05L734.98 965.73L733.53 963.5L732.07 959.49L731.45 955.91L731.4 948.85L732.27 942.61L733.04 938.95L733.82 933.92L737.72 917.58L741.16 905.2L744.4 889.86L744.92 889.25L745.7 892.09L747.02 902.93L749.33 920.48L750.63 928.17L753.15 947.12L753.29 952.04L753.15 953.21L753.15 955.24L752.48 959.06L751.16 962.73L749.14 965.87L746.43 967.9L743.15 969.16L743.15 969.16Z" />
		<path id="path420" class="shp1" d="M310.14 961.04L306.96 960.95L304.25 960.22L301.55 958.62L298.94 956.06L297.04 953.01L295.45 948.62L294.77 945.66L294.53 940.54L295.6 930.28L298.5 914.19L303.38 892.29L308.93 862.22L309.23 861.73L309.75 863.04L311.4 874.94L313.68 885.76L314.3 889.53L318.41 907.96L319.82 916.36L320.73 921.29L322.03 931.3L322.33 940.58L321.21 948.51L320.06 952L318.17 955.58L315.71 958.34L312.86 960.22L310.14 961.04L310.14 961.04Z" />
		<path id="path424" class="shp2" d="M521.28 895.48L518.61 895.1L513.21 893.36L511.52 892.19L510.35 890.4L509.58 887.84L508.33 884.65L507.03 883.54L505.13 882.48L503.98 880.98L503.44 874.31L503.16 867.92L502.48 861.49L502.81 860.48L505.03 859.8L507.65 859.51L511.27 859.51L511.94 859.89L510.89 862.8L511.04 867.58L511.52 868.89L513.98 872.08L515.76 873.05L517.81 873.29L519.31 872.76L521.77 870.14L522.98 869.61L525.77 868.94L526.27 869.18L526.36 870.82L526.31 872.23L527.33 874.84L528.39 877.06L528.15 879.14L527.96 880.69L528.62 883.1L530.32 885.47L530.42 887.06L529.45 889.78L527.85 892.34L526.74 893.64L525.39 894.37L522.59 895.14L521.28 895.48L521.28 895.48Z" />
		<path id="path428" class="shp2" d="M475.89 895.34L473.81 895.23L471.55 894.75L469.22 894.52L468.69 894.08L470.23 893.26L477.92 890.45L480.59 889.15L482.03 887.45L483.53 884.69L484.88 883.83L487.78 883.44L490.06 883.54L490.35 883.97L490.15 884.65L489.23 885.22L486.09 886.29L485.27 887.26L484.35 890.45L483.24 891.9L475.89 895.34L475.89 895.34Z" />
		<path id="path432" class="shp2" d="M493.44 881.12L491.94 881.03L491.55 879.37L491.41 875.75L491.85 870.39L491.65 867.44L491.79 865.69L492.47 862.51L492.96 860.92L493.73 860.52L497.49 860.52L498.41 861.05L498.96 862.84L499.96 871.26L500.11 878.22L499.57 879.33L498.67 879.86L493.44 881.12L493.44 881.12Z" />
		<path id="path436" class="shp1" d="M559.42 871.4L556.8 871.16L554.15 870.01L551.54 867.53L550.09 865.17L548.05 859.95L547.1 853.42L547 847.67L547.82 836.89L549.8 826.73L550.72 823.54L550.95 822.04L551.72 818.61L553.71 810.44L554.44 807.24L557.82 791.34L558.93 784.57L559.32 784.47L559.85 786.4L560.97 793.51L562.85 803.14L565.16 812.85L566.72 818.22L568.74 826.15L570.68 836.93L571.31 844.57L571.13 854.39L570.05 859.8L568.17 864.53L566.29 867.53L563.95 869.57L561.3 870.87L559.42 871.4L559.42 871.4Z" />
		<path id="path440" class="shp1" d="M271.72 865.31L269.15 865.21L267.03 864.34L263.98 862.02L261.66 858.73L260.21 855.39L259.1 850.36L258.66 844.86L258.81 837.76L260.36 826.55L264.56 806.67L266.93 795.55L267.32 792.99L268.53 784.95L269.06 780.27L269.55 777.85L270.41 767.69L270.41 750.44L269.26 738.97L266.55 722.11L262.92 701.56L261.18 691.84L256.93 662.25L256.05 649.19L256.69 620.96L260.36 592.82L263.26 578.52L266.17 567.1L270.65 552.74L275.87 538.44L284 520.06L292.26 504.64L303.13 487.29L310.24 477.43L319.52 465.97L329.68 454.79L340.55 443.92L352.15 434.06L361.23 427.24L370.8 420.71L374.58 418.35L375.45 417.18L376.65 417.04L378.15 416.51L380.09 416.65L384.25 417.57L388.89 417.42L392.65 416.6L396.82 414.86L400.97 412.25L404.88 409.06L406.67 407.37L407.79 407.47L408.65 408.72L410.44 411.23L412.27 412.98L415.27 414.72L418.8 416.03L420.35 416.27L425.57 416.12L429.19 415.01L432.3 413.27L435.92 410.51L442.44 403.55L452.49 391.26L455.78 388.52L459.12 386.48L462.55 385.18L465.5 384.26L466.18 383.33L465.93 382.27L463.85 381.56L461.82 381.45L457.57 382.13L453.75 383.59L449.98 385.76L446.4 388.65L437.65 397.75L435.05 400.65L431.18 403.7L428.57 404.71L425.28 404.95L422 404.14L420.17 402.97L418.71 401.13L417.65 397.89L417.6 395.08L418.71 390.44L421.32 385.13L424.81 380.83L428.43 377.49L432.92 374.31L437.8 371.83L444.96 369.23L450.57 368.06L459.21 367.53L467.73 368.5L473.57 369.95L483.24 373.87L487.59 376.34L493.63 381.12L495.23 383.24L496.86 385.71L497.64 386.09L498.71 385.86L499.3 384.83L499.81 381.89L499.81 358.97L498.96 339.97L498.08 326.92L497.55 322.23L496.77 310.67L496.1 304.68L494.02 283.26L492.19 271.08L490.73 264.69L488.56 257.93L486.53 254.3L483.39 250.58L482.23 248.06L481.98 247.15L482.08 243.76L483.97 236.41L487.73 227.48L492.66 218.76L499.77 208.08L506.87 198.8L515.57 189.08L527.17 177.33L531.53 173.41L537.05 168.35L546.71 160.51L558.35 151.95L571.06 143.98L579.28 139.62L584.8 137.15L589.76 135.71L593.94 135.47L596.15 136.29L597.75 138.23L598.13 140.69L597.17 145.77L593.98 152.97L584.4 167.71L579.78 173.81L577.34 176.75L572.08 183.38L561.83 194.69L551.34 205.28L534.67 219.49L524.71 226.94L519.92 231.29L518.05 234.38L517.02 236.9L516.78 239.46L517.12 273.5L517.61 283.74L517.5 285.29L517.66 287.9L517.61 311.07L517.02 340.94L516.78 344.33L515.93 364.05L514.95 381.12L515.42 382.57L516.07 383.1L517.31 383.1L524.81 377.78L528.44 375.9L534.19 373.58L538.87 372.41L541.43 372.03L547.82 372.17L551.73 373.14L554.87 374.44L558.73 376.91L561.34 379.52L563.95 383.68L565.03 386.92L565.21 390.31L564.54 394.42L563.09 397.75L560.63 400.65L556.17 403.55L552.7 404.91L551.78 405.87L552.26 406.88L553.32 407.61L555.94 407.85L560.14 407.17L564.16 405.58L567.29 403.41L570.48 399.83L572.37 396.1L573.68 391.9L574.02 388.46L573.53 384.26L572.67 381.65L570.92 378.22L570.33 377.2L571.51 377.34L576.29 380.54L578.75 382.37L584.25 386.77L587.02 389.34L595.14 397.07L599.2 400.98L605.78 406.44L611.28 410.08L615.38 412.11L618.43 412.93L622.94 413.22L627.28 412.78L629.07 413.46L637.91 418.54L647.63 424.78L661.85 434.92L674.6 445.66L677.06 447.93L685.34 455.82L686.78 457.35L692.3 463.07L700.56 472.64L702.07 474.76L704.47 477.67L711.29 486.66L712.64 488.68L723.47 504.79L727.53 511.55L733.48 523.06L737.58 532.06L738.16 533.69L741.75 542.35L746.82 556.67L751.31 571.94L753.05 578.75L755.34 590.75L757.75 607.05L758.9 617.63L758.99 619.61L759.34 625.61L759.48 629.92L759.05 631.36L759.77 634.5L759.92 654.18L759.83 661.1L759.63 670.04L758.81 676.9L758.51 682.71L758.22 683.86L757.84 688.94L756.97 696.14L753.93 714.95L752.38 731.25L751.75 735.69L751.84 756.53L752.52 777.81L752.14 787.27L751.46 793.37L748.85 807.14L747.68 810.25L747.12 810.15L746.43 808.75L743.04 798.45L739.47 788.68L737.53 780.13L736.38 768.66L736.77 746.81L736.18 737.09L733.91 720.76L731.5 709.14L730.63 705.81L729.71 697.64L729.96 686.48L730.63 679.02L731.41 674.29L731.55 667.19L730.87 662.25L728.84 655.73L727.1 652L724.92 648.67L721.88 645.52L719.37 643.93L716.46 642.91L713.57 642.82L710.57 643.78L707.71 645.96L705.09 648.96L703.36 652.15L700.89 659.11L699.74 664.92L698.24 675.94L696.06 683.38L694.37 688.41L692.2 699.48L691.72 706L691.82 711.13L692.39 714.75L692.77 718.67L694.18 724.67L695.25 729.11L696.06 731.92L699.36 746.96L700.04 755.09L699.79 758.7L698.53 763.01L696.69 766.34L694.8 768.48L692.54 769.92L691.23 770.31L689.02 770.21L687.22 769.48L685.24 768.04L683.35 765.81L681.76 762.91L680.74 758.7L680.5 753.62L680.88 748.6L681.9 741.44L686.4 721.53L688.52 713.11L689.63 705.62L689.88 699.33L689.11 694.69L687.51 689.56L685.05 684.35L680.83 677.73L675.33 670.91L669.53 665.69L661.98 660.17L651.89 654.03L646.02 648.96L642.75 645.34L639.7 640.88L635.16 633.63L629.07 624.93L623.85 619.71L619.25 616.66L615.67 615.21L611.42 614.05L608.14 613.67L603.21 613.9L597.55 615.21L594.03 616.81L590.12 619.71L587.21 622.61L584.3 626.76L582.8 630.15L581.11 633.54L579.08 640.64L577.44 652L576.73 667.24L576.82 669.21L576.39 681.25L575.27 691.79L573.38 699.92L570.48 708.67L567.29 716.55L564.45 723.08L561.26 733.18L559.52 740.73L558.89 743.52L558.5 743.43L555.84 733.62L551.78 723.75L547.72 715.1L542.65 705.58L539.65 700.36L535.31 692.23L532.69 685.85L530.08 677.78L527.17 664.81L523.79 645.34L521.19 635.76L518.72 629.81L516.54 625.94L514.23 622.9L513.55 622.32L511.95 620.86L509.91 619.56L507.36 618.89L504.18 618.89L501.32 620L498.9 621.88L496.72 625.02L494.12 630.83L491.02 638.71L488.56 643.01L485.23 647.36L475.55 656.69L472.65 660.71L470.76 664.43L469.37 669.36L468.78 672.99L468.35 684.73L469.22 698.22L473.86 724.91L474.25 734.34L474.01 737.97L473.19 741.4L471.49 744.01L469.61 745.41L467.63 746.23L465.59 746.14L464.09 745.26L462.5 743.58L461.35 741.44L460.47 738.7L459.94 735.36L460.32 727.37L461.77 719.79L465.16 704.46L466.76 695.46L467.19 688.36L466.37 681.01L464.64 673.81L461.77 665.45L460.03 659.02L458.77 650.36L458.01 643.58L456.94 638.52L454.91 633.3L452.01 628.36L448.97 624.64L445.38 621.88L442.64 620.44L439.21 619.56L437.76 619.32L433.4 619.56L429.63 620.58L425.62 622.47L421.03 625.94L413.88 632.28L408.42 635.91L403.92 638.09L396.77 640.4L385.11 643.06L379.94 645.1L376.03 647.8L371.29 652.63L368.1 657.27L365.93 661.29L364.33 666.13L363.07 671.97L362.78 680.52L362.93 687.06L362.87 698.61L361.67 708.47L360.37 713.11L352.44 731.19L349.78 740.09L349.35 740.52L348.86 738.11L348.04 733.27L344.42 722.35L342.14 717.08L339.54 709.44L337.79 701.47L336.83 693.88L335.81 677.34L334.99 672.26L333.97 669.89L332.14 668.15L330.59 667.62L328.71 667.86L327.06 668.73L325.62 670.27L324.02 673.61L322.57 679.08L320.2 694.6L318.31 701.22L315.56 707.61L314.31 710.35L311.55 717.71L310.39 722.59L309.91 724.14L309.18 725.11L307.83 725.25L306.76 724.29L305.89 721.82L304.3 715.83L299.66 704.02L298.54 699.68L297.24 689.81L297.05 680.87L296.42 678.84L295.4 677.58L293.85 676.96L292.12 677.44L290.81 679.13L289.79 681.25L288.2 686.77L287.23 695.17L286.7 700.54L286.07 705.48L281.34 724.67L277.33 739.75L274.72 753.04L273.31 763.05L273.02 772.05L273.46 781.04L274.57 790.76L274.81 791.88L275.14 795.02L278.77 815.18L281.72 831.22L282.83 842.44L282.6 848.48L281.68 853.8L279.89 858.88L278.01 861.73L277.18 862.45L274.72 864.34L271.72 865.31L271.72 865.31Z" />
		<path id="path444" class="shp2" d="M519.4 859.65L517.99 859.56L517.99 859.17L519.26 859.08L519.64 859.32L519.4 859.65L519.4 859.65Z" />
		<path id="path448" class="shp2" d="M492.85 857.62L488.8 857.62L487.88 857.09L485.85 853.86L485.03 851.39L484.21 844.91L484.44 840.37L483.92 839.3L483 838.73L479.27 837.94L478.02 836.98L475.84 833.36L475.02 830.65L475.22 828.9L475.99 827.84L477.54 826.63L477.78 825.28L476.52 821.8L476.86 821.02L479.08 820.35L484.94 819.53L486.09 818.95L486.57 817.79L486.23 816.82L485.32 816.3L481.54 816.43L477.34 816.97L475.99 816.62L475.31 815.28L475.41 813.19L475.84 812.46L476.63 812.27L479.08 812.52L481.01 811.69L483.19 810L486.09 806.18L486.47 805.12L486.23 803.04L484.79 798.21L481.74 791.88L479.9 788.88L478.46 786.32L476.28 783.07L475.75 781.62L475.99 778.72L476.34 777.13L476.13 775.38L475.07 773.46L473.05 770.84L468.4 766.21L466.27 764.02L463.18 760.84L462.12 760.45L458.98 760.64L457.63 759.81L456.17 759.67L453.85 760.01L451.43 759.19L447.9 757.5L443.02 755.86L442.35 755.27L442.35 754.45L443.56 753.73L452.2 751.36L453.46 750.39L453.46 749.04L452.79 748.21L451.29 748.07L440.89 750.92L439.35 751.01L438.24 750.48L436.78 749.09L435.43 748.56L433.21 748.8L429.82 749.77L426.3 750L421.66 749.72L418.51 750.54L414.42 752.53L409.43 753.73L405.96 755.03L405.22 756L404.59 758.46L403.38 759.19L399.67 759.96L399.13 760.35L398.65 762.72L397.25 764.13L397.15 765.81L397.2 766.92L396.33 768.04L392.27 769.83L390.87 771.27L388.35 775L385.65 777.32L379.27 782.01L376.94 784.57L375.21 787.56L373.32 791.82L372.4 794.28L370.37 797.39L370.04 798.3L370.28 800.04L371.68 802.94L372.31 805.03L374 807L374.82 808.88L374.57 809.81L373.85 810.15L370.75 809.52L365.78 808.12L363.66 808.02L362.59 808.55L362.11 809.42L362.44 810.4L365.05 811.4L373.62 814.06L374.44 814.74L374.68 816.01L374.53 817.88L374.92 818.8L376.32 820.64L376.18 821.74L375.06 822.86L370.52 825.08L369.11 826.49L368.1 829.25L367.61 831.47L366.84 832.1L365.44 831.86L361.09 829.83L346.35 821.56L331.12 811.69L322.57 805.61L315.85 800L315.17 798.63L315.32 796.66L316.33 793.9L317.11 793.37L318.5 793.61L328.31 798.07L329.82 798.07L330.45 797.14L330.35 795.6L329.53 794.63L318.61 789.36L317.44 788.14L317.25 787.56L317.55 778.58L317.02 771.91L317.35 770.7L318.41 770.32L321.46 770.17L324.93 770.17L333.2 769.59L334.12 769.2L334.85 768.13L334.76 767.16L333.92 766.49L331.89 766.39L317.4 766.83L316.43 766.44L315.75 765.38L313.82 758.61L311.65 753.39L311.45 752.47L311.83 751.55L315.12 749.37L336.73 737.15L338.61 735.45L338.76 734.48L338.23 733.71L336.97 733.71L333.45 735.45L316.05 745.7L311.26 748.31L309.85 748.56L308.79 747.87L306.71 744.58L301.64 738.35L295.74 732.83L291.1 729.31L290.71 728.54L291.24 724.23L292.74 715.04L293.27 710.94L293.85 709.73L294.24 710.11L297.19 722.44L299.51 728.92L303.28 735.89L306.91 740.49L309.81 743.52L310.58 744.06L311.35 743.96L312.42 739.9L314.55 735.89L316.87 729.36L319.23 721.33L321.55 716.25L323.25 712.96L326.58 704.56L327.93 698.56L328.8 692.52L329.24 691.75L329.77 692.19L330.74 696.92L331.17 701.56L333.15 711.28L336.92 722.25L338.91 727.13L340.5 732.69L341.47 739.56L341.7 746.77L341.32 751.45L339.63 760.73L334.61 778.67L332.67 791.11L332.62 795.11L333.2 799.45L334.46 803.57L336.2 807.2L338.32 809.96L340.94 812.13L343.79 813.58L346.11 814.11L350.16 813.96L353.31 812.86L356.3 810.97L358.92 808.22L360.8 805.36L362.55 800.82L363.51 795.98L363.51 790.03L362.59 781.68L358 756.09L357.71 753.2L357.85 746.08L359.55 738.55L362.88 730.33L367.19 721.53L370.81 711.67L372.5 704.46L373.66 695.75L373.8 686.62L373.51 683.86L373.66 676.61L374.48 671.97L375.5 668.1L376.94 665.25L379.56 661.92L382.31 659.45L386.9 656.69L394.54 653.79L403.05 651.13L410.3 647.65L415.77 644.17L425.67 636.68L430.84 633.48L434.42 632.04L437.04 631.51L439.68 631.75L442.92 632.91L444.18 633.88L446.21 636.77L447.52 640.31L450.17 656.65L452.64 664.14L456.51 672.32L457.67 675.98L458.59 682.89L458.63 688.5L457.67 696.3L455.05 708.37L453.66 713.07L451.63 721.82L450.85 728.15L450.81 736.38L451.76 741.64L453.66 746.48L455.69 749.91L458.3 752.82L461.72 755.27L464.68 756.44L466.9 756.82L470.76 756.58L474.69 755.42L477.1 753.97L479.86 751.51L482.03 748.51L483.77 744.64L485.03 739.85L485.47 736.23L485.18 729.84L483.63 719.5L477.63 691.7L477.34 689.08L477.48 680.53L478.31 675.55L479.46 672.61L481.36 669.61L483.82 667L491.31 661.14L494.78 657.66L497.7 653.36L499.43 649.92L501.51 643.58L503.25 640.73L504.51 639.58L506.06 639.24L507.7 639.87L509.73 641.85L512.05 645.52L514.37 650.98L516.97 660.66L519.01 670.71L520.22 677.24L522.54 684.83L525.3 692.08L528.34 698.32L529.45 700.25L531.82 704.99L538.87 717.85L546.56 734.62L549.6 743.33L552.22 754.79L553.27 762.28L553.41 769.35L552.65 772.82L551.97 773.4L550.53 773.4L548.06 772.24L546.31 770.55L545.69 768.91L544.95 765.77L543.71 764.17L542.17 763.34L540.61 763.59L536.16 766.34L533.56 768.91L530.51 770.79L523.84 773.02L520.22 775.44L517.81 775.96L515.09 775.87L513.69 775.29L512.68 774.17L511.38 770.74L511.23 767.12L511.94 763.34L511.61 761.7L508.9 759.38L507.12 758.66L505.47 758.46L501.69 758.7L497.93 757.98L495.58 758.23L487.77 760.93L484.74 760.84L483.68 761.57L483.04 762.52L482.37 762.52L481.06 759.58L479.71 756.29L479.04 755.47L477.78 755.32L476.72 756L476.38 757.35L479.86 767.75L480.19 769.88L479.86 771.56L477.54 774.61L477.1 776.02L477.58 777.02L480.15 778.92L482.18 779.98L483.48 781.53L485.36 787.91L488.41 800.15L491.12 813.24L490.97 817.45L491.5 818.8L492.47 820.11L494.06 827.51L497.31 848.39L498.08 855.74L497.55 856.8L495.02 857.49L492.85 857.62L492.85 857.62Z" />
		<path id="path452" class="shp2" d="M503.15 856.61L502.04 856.08L501.7 855.02L501.12 847.76L501.46 847.56L503.34 849.26L505.04 849.8L509.69 850.09L512.15 849.65L512.63 849.89L512.54 851L511.33 853.42L511.48 855.25L510.35 855.79L505.04 856.46L503.15 856.61L503.15 856.61Z" />
		<path id="path456" class="shp2" d="M517.5 855.01L515.86 854.77L515.62 853.86L516.31 852.31L520.74 845.4L521.91 843.46L524.82 840.27L527.41 838.43L530.7 836.69L531.78 836.78L532.78 837.51L533.17 838.48L532.93 840.36L531.78 842.44L528.78 846.65L526.16 851.19L523.41 853.9L518.52 854.87L517.5 855.01L517.5 855.01Z" />
		<path id="path460" class="shp2" d="M501.26 845.87L500.84 845.87L499.86 840.75L496.97 821.99L496.05 818.15L503.88 816.24L508.22 815.32L518.09 812.95L519.93 813.19L521.47 814.74L521.87 816.29L521.32 819.18L521.95 820.97L523.36 822.28L524.96 823.49L525.43 824.51L524.66 826.49L514.12 837.55L511.76 841.76L510.01 843.45L507.51 844.28L503.3 844.43L501.93 844.96L501.26 845.87L501.26 845.87Z" />
		<path id="path464" class="shp2" d="M362.93 835.72L359.44 835.48L356.59 834.75L354.32 833.31L349.54 829.87L347.51 828.52L340.11 822.33L338.72 821.8L334.21 822.53L332.42 821.85L328.95 818.95L319.52 810.11L315.32 805.51L314.55 804.15L315.17 804.06L324.11 810.29L327.6 812.85L343.45 823.73L350.56 827.7L359.79 832.87L363.26 834.66L363.61 835.19L362.93 835.72L362.93 835.72Z" />
		<path id="path468" class="shp0" d="M502.72 828.76L501.17 828.37L499.47 826.82L499 825.42L499.18 824.16L500.44 822.76L502.38 821.89L506.87 821.02L509.54 820.92L511.04 821.46L511.66 822.66L511.18 825.27L510.45 827.21L509.4 827.74L506.43 827.27L502.72 828.76L502.72 828.76Z" />
		<path id="path472" class="shp2" d="M497.5 813.97L495.66 813.88L494.83 812.91L492.08 800.53L489.66 789.46L489.76 788.1L491.16 788.25L493.73 788.73L495.86 788.54L496.82 788.05L498.12 787.09L499.62 787.09L503.05 787.9L504.36 788.67L505.53 790.08L507.61 794.49L509.73 796.89L509.82 798.44L509.69 800.62L510.35 802.12L512.04 803.72L513.11 807.05L514.66 808.8L514.66 809.52L513.07 810.24L505.03 812.27L497.5 813.97L497.5 813.97Z" />
		<path id="path476" class="shp1" d="M348.57 802.65L346.4 802.41L344.32 801.25L343.01 799.85L341.86 797.14L341.46 794.38L341.75 788.44L343.3 777.9L348.53 751.59L348.82 751.21L349.2 751.94L353.31 782.26L353.65 788.73L353.5 795.4L352.68 799.03L351.38 801.15L349.88 802.26L348.57 802.65L348.57 802.65Z" />
		<path id="path480" class="shp2" d="M310.44 798.74L309.24 798.35L307.05 796.07L301.11 788.25L295.74 780.18L293.52 776.74L289.36 770.26L284.43 761.31L282.84 756.96L282.6 754.94L283.42 751.12L286.31 742.36L288.44 736.66L289.36 734.09L290.28 733.67L291.53 734L296.12 737.49L299.03 740.63L303.96 746.86L306.71 751.36L309.47 757.11L311.65 763.15L312.8 767.94L313.86 775.05L314.06 782.92L313.44 789.37L311.79 796.85L310.92 798.5L310.44 798.74L310.44 798.74Z" />
		<path id="path484" class="shp2" d="M616.84 777.13L614.61 776.88L612.64 776.4L610.36 776.16L609.12 775.05L608.38 773.79L608.24 772.77L608.92 771.71L609.93 771.27L612 770.79L613.84 768.67L615.72 766.78L623.46 760.99L624.3 760.84L624.57 760.93L624.43 761.99L622.4 765.13L619.55 768.09L618.87 769.73L619.1 771.09L620.22 771.96L622.06 772.2L626.94 770.79L628.77 769.48L635.46 761.7L635.84 760.58L636.23 758.85L637.67 756.19L639.22 755.03L640.9 754.65L642.89 754.45L643.72 753.97L644.2 752.66L644.2 749.22L645.36 747.2L648.65 744.98L650.25 743.72L653.86 742.51L657.05 740.34L658.16 739.65L659.76 739.27L663.83 739.03L666.63 738.15L667.6 737.62L668.94 737.77L669.82 739.12L669.97 740.96L668.85 742.37L665.66 744.1L662.76 745.31L659.81 747.49L654.16 755.71L651.39 758.17L649.66 759.05L647.3 759.14L646.18 759.09L644.34 759.81L641.58 762.43L639.7 764.99L636.23 770.35L634.58 773.4L633.33 774.85L631.39 775.58L628.39 776.21L626.94 775.73L624.96 774.46L623.42 774.46L621.43 775.78L620.42 776.45L617.85 776.98L616.84 777.13L616.84 777.13Z" />
		<path id="path488" class="shp2" d="M723.13 773.5L722.22 773.17L721.87 771.86L722.02 769.48L722.27 766.69L721.87 764.99L720.04 763.01L718.88 761.85L718.49 760.88L718.58 759.29L719.89 756.48L721.16 754.45L721.63 751.98L721.3 749.77L719.85 746.91L718.11 745.26L718.2 742.61L720.57 736.22L721.11 733.47L720.57 732.27L719.32 731.1L716.22 728.78L714.97 727.19L714.97 725.93L716.13 723.85L718.98 718.87L721.01 714.33L720.87 712.39L720.04 711.76L719.17 712.1L717.14 715.54L715.2 719.3L712.17 723.5L710.95 724.38L709.88 724.29L707.19 722.7L704.42 722.35L703.22 721.62L702.49 719.88L700.9 712.54L700.37 708.37L700.22 700.69L701.1 693.73L703.36 685.71L706.65 676.03L707.47 672.41L707.91 664.72L708.58 662.01L710.62 658.58L712.74 656.84L714.43 656.31L716.28 656.55L718.11 657.56L719.55 659.35L721.16 662.3L722.75 667.53L723.28 671.24L723.28 680.24L722.57 689.81L721.87 694.6L721.68 699.53L723.04 712.39L724.1 717.51L725.95 723.9L727.97 734.53L728.88 744.25L729.02 755.03L728.5 764.22L727.97 766.05L724.05 772.68L723.13 773.5L723.13 773.5Z" />
		<path id="path492" class="shp2" d="M580.88 773.21L579.52 772.82L576.34 770.65L574.15 768.95L572.92 768.71L569.72 769.73L566.67 769.63L565.9 769.06L565.37 766.98L565.26 761.7L565.9 759.82L566.81 759.29L570.43 759.58L572.33 759.44L574.89 759.96L576.14 760.99L579.18 766.39L580.54 769.06L581.65 771.33L581.65 772.59L580.88 773.21L580.88 773.21Z" />
		<path id="path496" class="shp2" d="M587.41 771.18L586 771.09L584.89 769.72L579.09 759.47L578.46 757.6L578.81 755.56L579.96 753.57L581.65 752.28L583.49 751.93L586.63 752.08L588.18 751.36L591.71 745.9L593.84 743.86L594.5 743.62L598.13 743.73L598.91 743.23L599.2 742.03L598.19 740.53L595.96 739.22L594.08 738.69L591.8 738.94L589.43 739.42L586.33 739.32L583.39 738.06L581.9 738.21L579.96 739.51L577.34 741.93L575.22 743.38L571.31 743.62L570.67 743.29L570.2 741.39L569.23 740.53L568.99 740L569.23 738.45L576.63 722.69L581.06 711.67L583.83 702.33L585.13 695.99L586.63 685.84L587.68 666.31L588.23 650.93L589.38 644.94L590.68 640.3L593.14 635.04L595.91 631.46L598.82 628.99L602.2 627.4L605.97 626.43L609.88 626.43L613.41 627.11L617.36 628.56L621.96 631.6L625.3 635.08L629.06 640.83L635.21 652.34L638.4 657.08L641.29 660.41L646.9 665.35L653.04 669.84L664.08 676.12L672.27 681.49L676.21 685.27L679.38 689.77L681.85 695.18L682.53 698.81L682.97 706.35L682.14 714.37L681.43 717.99L680.88 718.58L680.06 718.68L677.89 718.54L676.44 718.68L674.26 718.54L668.46 719.93L667.51 719.74L667.4 718.68L669.14 716.31L676.77 706.44L680.26 701.37L680.79 699.82L680.55 697.88L679.68 697.4L678.71 698.03L674.22 703.68L666.05 714.37L663.82 716.4L662.57 716.4L660.44 714.7L645.36 699.28L628.39 680.58L626.46 678.16L616.94 666.42L615.72 663.99L615.93 662.93L617.77 661.14L623.27 656.41L629.57 650.7L630.28 649.25L629.8 647.85L628.88 647.6L627.96 648.14L618.92 655.92L614.33 659.4L612.78 659.79L611.85 659.3L606.94 653.21L602.98 647.85L600.56 644.46L597.6 640.01L596.79 638.76L596.01 637.69L595.14 637.54L594.32 638.27L593.94 639.19L594.17 640.65L595.73 643.35L607.66 659.55L609.21 661.43L609.68 662.69L608.47 664.19L597.75 673.04L590.4 678.74L589.38 680.25L589.38 681.79L589.76 682.17L590.94 682.08L593.26 680.58L602.43 673.38L607.47 669.31L610.8 666.95L612.06 666.51L612.98 666.85L615.29 669.56L624.63 681.02L627.19 683.92L634.2 692.03L654.78 714.37L655.76 715.25L659.37 718.92L659.72 719.93L659.43 720.46L651.15 722.5L649.18 722.59L646.87 722.01L643.44 721.92L641.58 721.04L639.6 719.63L638.31 719.25L635.97 719.5L630.94 721.39L628.54 722.69L627.38 723.95L622.74 729.94L620.98 731.2L618.82 732.41L616.64 734.83L615.79 736.75L615.25 738.83L615.49 741.26L616.35 742.94L617.77 744.11L619.02 744.49L625.68 744.06L626.46 744.44L626.81 745.46L624.92 751.51L624.73 754.94L623.75 756.14L617.66 760.93L616.69 761.32L615.15 761.08L611.56 759.67L608 758.85L605.42 758.95L603.59 759.82L602.15 761.8L598.78 768.37L597.64 769.49L596.25 769.72L593.5 768.72L591.95 768.95L588.71 770.65L587.41 771.18L587.41 771.18Z" />
		<path id="path500" class="shp0" d="M366.12 767.99L363.89 767.9L362.88 767.31L362.54 766.3L363.03 765.33L365.39 764.65L378.88 763.26L393.62 760.79L394.44 760.21L394.59 758.9L392.85 753.63L387.92 741.01L382.84 730.23L379.7 723.99L376.32 716.41L375.4 715.53L374.49 715.44L372.65 715.92L371.87 715.53L371.73 714.52L372.59 713.11L373.56 711.95L373.66 710.7L373.52 709.1L374.05 708.13L375.02 708.04L376.99 709.83L378.54 709.59L388.21 703.98L395.94 699.87L418.52 686.72L436.2 676.36L438.53 674.63L438.87 673.52L438.09 671.16L434.61 664.91L428.43 655.24L426.4 652L422.91 646.54L422.43 645.14L422.63 644.07L423.4 643.59L424.31 643.79L426.34 646.2L433.01 655.78L439.53 666.65L441.61 670.48L442.87 671.73L444.23 671.58L450.12 668.31L451.77 668.16L452.6 669.07L452.5 670.37L451.57 671.45L446.55 674.54L445.54 675.65L445.29 677.19L446.4 679.71L453.89 693.63L455.65 697.5L455.94 699.34L455.35 700.59L454.68 700.93L453.8 700.44L451.92 697.45L443.6 681.02L441.72 678.3L440.61 678.15L436.79 679.91L431.62 683.05L427.84 685.12L426.01 686.38L424.36 687.01L405.37 697.99L379.8 712.38L378.98 713.26L379.13 714.8L385.6 727.71L389.56 736.47L392.7 744.01L397.78 758.71L397.78 759.97L396.38 761.65L395.75 763.68L394.11 764.26L376.85 766.82L366.12 767.99L366.12 767.99Z" />
		<path id="path504" class="shp2" d="M401.79 765.96L400.59 765.72L400.2 764.94L400.39 763.97L401.21 763.44L402.8 763.05L404.5 763.16L404.93 763.69L404.74 764.56L402.8 765.57L401.79 765.96L401.79 765.96Z" />
		<path id="path508" class="shp0" d="M488.51 737.96L487.59 737.57L487.35 736.22L487.88 735.16L490.92 733.85L496.72 731.64L511.94 724.96L527.18 717.57L533.22 714.27L534.38 714.27L535.11 715.09L535.26 716.11L534.67 716.99L530.8 719.31L512.38 728.3L499.34 734.1L489.67 737.72L488.51 737.96L488.51 737.96Z" />
		<path id="path512" class="shp2" d="M395.12 599.16L393.91 598.54L393.53 597.57L393.34 554.92L393.78 553.86L395.18 553.33L423.4 553.33L424.61 553.86L425.14 555.65L425.06 561.74L424.58 562.95L423.65 563.48L406.41 563.48L404.62 564.01L404.09 565.51L404.16 569.14L404.64 570.2L406.43 570.73L419.77 570.73L420.84 571.26L421.27 572.47L421.32 579.54L420.93 580.75L420.02 581.33L406.14 581.46L404.64 582L404.11 583.35L404.26 587.7L404.78 588.62L406.01 589L423.31 589L424.95 589.53L425.38 590.17L425.43 597.71L424.9 598.63L423.98 599.02L395.12 599.16L395.12 599.16Z" />
		<path id="path516" class="shp2" d="M555.2 598.58L547.01 598.43L545.94 597.96L545.46 596.74L545.35 564.5L544.86 563.38L543.76 562.9L534.28 562.71L533.26 562.03L532.88 560.63L532.88 554.19L533.26 553.43L534.91 552.89L567.69 552.75L569.67 553.28L570.2 553.96L570.15 561.3L569.41 562.52L567.92 562.91L558.4 563.05L557.35 563.58L556.95 564.64L556.81 596.99L556.32 598.05L555.2 598.58L555.2 598.58Z" />
		<path id="path520" class="shp2" d="M586.97 598.44L580.72 598.4L579.51 597.87L579.04 596.57L578.85 554.65L579.1 553.39L579.87 552.86L587.52 552.89L588.86 553.43L589.4 554.78L589.43 567.54L589.83 569.47L590.83 570.06L606.54 570.15L608.19 569.62L608.67 568.32L608.76 553.96L609.26 553.23L610.61 552.74L617.74 552.74L618.98 553.27L619.53 554.29L619.69 596.21L619.25 597.66L618.34 598.19L610.17 598.05L609.39 597.51L609.01 595.97L608.97 582.77L608.57 581.22L607.52 580.69L590.56 580.73L589.93 581.36L589.6 583.05L589.72 596.69L589.33 597.62L588.12 598.3L586.97 598.44L586.97 598.44Z" />
		<path id="path524" fill-rule="evenodd" class="shp2" d="M434.95 598.48L434.71 598L448.73 554.72L449.69 553.31L450.67 552.93L461.82 553.05L463.32 553.58L464.2 554.82L481.45 597.14L481.3 598.25L480.24 598.78L472.26 598.88L469.9 598.34L469.02 597.22L466.63 590.15L465.49 589.39L449.73 589.4L448.29 590.11L446.06 597.13L445.34 598.21L443.42 598.88L435.87 598.88L434.95 598.48ZM461.82 577.6L461.59 576.49L456.8 563.57L456.27 563.57L452.11 576.25L451.67 577.48L452.44 578.06L461.07 578.13L461.82 577.6Z" />
		<path id="path528" fill-rule="evenodd" class="shp2" d="M516.16 598.05L506.98 584.9L505.62 583.89L500.29 583.98L499.91 584.42L499.68 585.53L499.77 596.6L499.43 597.81L498.08 598.43L490.4 598.43L489.32 597.9L488.85 596.75L488.69 554.66L489.27 553.3L490.48 552.91L512.14 552.89L516.26 553.57L519.19 554.73L521.91 556.62L524.23 559.32L525.82 562.81L526.36 565.51L526.01 569.82L525.38 572.33L523.94 575.14L521.48 578.18L518.77 580.36L518.57 581.17L528.62 597.28L528.44 598.05L527.38 598.43L517.5 598.58L516.16 598.05ZM511.52 572.53L513.06 571.21L513.83 569.77L514.11 567.34L513.35 565.17L511.38 563.58L508.52 562.9L501.13 562.8L500.01 563.33L499.62 564.44L499.68 571.89L500.06 572.81L501.42 573.35L508.81 573.35L509.68 573.2L511.52 572.53Z" />
		<path id="path532" class="shp2" d="M486.04 540.71L484.84 540.18L484.45 538.97L484.27 497.28L484.8 496.07L485.73 495.69L493 495.61L494.53 496.14L495.02 497.05L495.08 510.5L495.57 512.05L496.62 512.58L511.86 512.58L513.06 512.18L513.65 511.17L513.62 497.88L513.77 496.52L514.46 495.85L515.56 495.61L522.96 495.61L524.46 496.14L524.95 497.88L525.05 538.68L524.51 540.18L523.02 540.71L515.16 540.65L514.1 540.17L513.71 539.05L513.65 524.89L513.06 523.98L511.27 523.59L496.92 523.59L495.86 523.98L495.33 525.19L495.33 538.68L494.79 540.18L493 540.71L486.04 540.71L486.04 540.71Z" />
		<path id="path536" class="shp2" d="M462.11 540.85L454.15 540.85L452.94 540.32L452.54 539.4L452.44 507.26L451.94 506L450.3 505.47L440.23 505.52L439.29 504.84L438.91 503L438.91 497.63L439.44 496.42L440.66 495.89L475.83 495.75L477.15 496.13L477.73 497.39L477.67 504.79L476.48 505.66L474.59 505.9L465.05 505.76L464.14 506.15L463.7 506.88L463.66 539.31L463.32 540.18L462.11 540.85L462.11 540.85Z" />
		<path id="path540" class="shp2" d="M568.69 540.46L541.42 540.57L539.94 540.03L539.45 538.59L539.32 497.08L539.77 496.03L541.11 495.5L568.41 495.46L570.05 495.99L570.58 497.05L570.48 503.93L570.03 504.96L568.87 505.53L552.46 505.6L550.96 506.15L550.58 506.92L550.49 510.06L550.91 511.65L551.64 512.18L553.17 512.43L565.64 512.29L567 512.82L567.49 513.97L567.49 521.5L566.85 522.52L565.5 522.99L552.31 523.01L551.1 523.54L550.72 524.76L550.82 528.58L551.49 529.44L552.31 529.68L569.71 529.68L571.05 530.22L571.46 531.28L571.49 539.39L570.57 540.21L568.69 540.46L568.69 540.46Z" />
		<path id="path544" class="shp2" d="M410.93 487.19L406 486.95L401.36 485.93L398.07 484.63L393.47 481.73L390.43 478.82L387.97 475.1L386.09 470.31L385.16 465.87L384.97 461.67L385.65 457.12L387.09 452.72L388.98 449.14L391.3 446.09L394.78 443.05L398.22 441.01L403 439.42L406.72 438.74L410.49 438.6L416.82 439.27L422.24 440.88L424.21 442.03L424.9 443L425.19 444.13L425.19 452.19L424.61 453.16L423.78 453.34L418.19 450.6L413.25 449.48L409.62 449.34L406 449.87L402.86 451.32L400.58 452.92L398.55 455.33L397.25 458.18L396.43 461.67L396.52 465.05L397.4 468.39L399.28 471.48L401.69 473.75L404.45 475.35L408.22 476.5L412.52 476.74L416.58 476.07L419.87 474.62L423.07 472.59L424.12 471.92L424.75 472.06L425.19 472.91L425.28 480.52L424.75 482.22L423.21 483.76L419.92 485.36L414.7 486.75L410.93 487.19L410.93 487.19Z" />
		<path id="path548" class="shp2" d="M510.99 483.71L499.24 483.66L498.33 483.27L497.6 482.07L484.25 441.79L484.01 439.76L484.49 439.14L486.78 438.57L493 438.75L494.35 439.14L495.22 440.78L504.26 470.52L504.94 471.29L505.82 471.29L506.14 470.61L515.28 441.41L516.39 439.28L518.04 438.38L524.46 438.46L526.4 438.99L526.74 439.76L526.27 442.08L512.63 482.89L511.86 483.47L510.99 483.71L510.99 483.71Z" />
		<path id="path552" class="shp2" d="M537.38 483.42L536.3 483.04L535.31 481.74L535.35 439.91L535.73 438.98L536.51 438.41L537.81 438.17L565.08 438.03L566.57 438.56L566.95 439.47L566.92 446.13L566.44 447.77L565.03 448.36L547.97 448.42L547.19 448.95L546.85 450.06L546.85 454.03L547.19 455.18L548.69 455.71L562.17 455.82L563.81 456.36L564.34 457.56L564.4 464.9L563.62 465.48L562.32 465.72L548.35 465.72L547.29 466.11L546.7 466.98L546.8 471.38L547.34 472.73L548.39 473.12L566.29 473.24L567.28 473.81L567.69 475.03L567.69 481.82L567.16 482.89L566.08 483.28L537.38 483.42L537.38 483.42Z" />
		<path id="path556" fill-rule="evenodd" class="shp2" d="M451.53 485.46L447.75 484.77L443.75 483.03L440.61 481L437.13 477.81L434.23 473.51L432.34 469.01L431.52 464.56L431.52 458.18L432.62 453.55L434.23 449.73L437.41 445.22L440.9 442.04L443.99 440.14L447.62 438.7L453.56 437.58L459.22 437.73L463.86 438.84L468.88 441.02L473.19 444.5L475.79 447.79L477.11 450.21L478.7 454.55L479.51 459.19L479.51 463.84L478.7 468.82L477.11 472.93L474.49 477.09L472.03 479.7L468.88 481.88L464.96 483.76L460.47 485.06L456.61 485.59L451.53 485.46ZM461.78 474.19L463.95 472.73L466.23 470.12L467.68 467.12L468.5 463.41L468.45 459.54L467.53 455.76L465.49 452.47L462.75 449.87L459.79 448.27L456.17 447.59L453.27 447.74L449.94 448.71L447.09 450.45L444.81 452.91L443.07 456.01L442.25 459.78L442.4 464.27L443.36 467.41L445.25 470.7L447.71 472.87L450.22 474.33L454 475.34L457.48 475.45L458.2 475.3L461.78 474.19Z" />
		<path id="path560" fill-rule="evenodd" class="shp2" d="M607.45 482.9L605.94 482.31L599.49 471.33L598.23 469.73L596.53 469.2L592.34 469.2L591.12 469.69L590.63 470.75L590.6 481.53L590.07 482.46L589.15 482.84L582.04 482.84L580.55 482.31L580.11 481.34L580.13 438.8L580.91 438.12L582.5 437.87L601.9 437.87L607.08 438.51L609.55 439.27L612.39 441.02L614.57 443.29L616.07 445.95L617.18 449.82L617.52 452.76L617.32 456.15L616.17 459.44L614.72 461.86L612.74 463.88L609.83 466.06L609.64 466.98L617.77 480.62L618.2 482.11L617.67 482.74L616.7 482.99L607.45 482.9ZM599.87 458.91L602.3 458.23L604.13 456.83L605.14 455.13L605.54 452.38L604.84 450.4L603.7 449.14L601.9 448.27L591.81 448.25L590.75 448.78L590.37 449.69L590.45 457.02L590.83 458.38L591.9 458.91L599.87 458.91Z" />
		<path id="path564" class="shp1" d="M388.01 406.55L384.3 406.3L380.72 405.15L377.81 402.87L376.51 400.99L375.35 398.48L374.38 394.08L374.48 389.73L375.64 384.21L377.1 380.69L381.15 374.01L385.5 369.22L388.21 366.75L396.08 361.1L405.32 356.17L414.65 352.4L427.79 349.21L434.71 348.24L444.28 347.95L452.1 348.77L458.49 350.07L464.96 351.97L472.21 355.15L477.24 358.06L483.91 363.13L489.13 368.36L491.89 372.23L491.99 372.89L490.63 372.23L485.7 368.78L478.17 365.02L471.1 362.55L464.58 361.15L456.46 360.14L448.63 360.28L440.9 361.69L434.18 363.71L427.5 366.9L421.61 370.53L417.99 373.73L413.35 378.89L407.39 387.88L401.83 397.75L398.07 401.95L394.93 404.27L391.21 405.86L388.01 406.55L388.01 406.55Z" />
		<path id="path568" class="shp1" d="M622.65 402.78L619.02 402.68L615.87 401.81L611.57 399.05L600.85 389.48L593.27 382.85L589.38 379.76L585.9 376.91L577.58 371.25L572.41 368.5L564.05 365.02L556.9 363.42L549.85 362.6L545.22 362.74L539.51 363.85L532.35 366.18L530.8 366.76L530.32 366.56L531.62 365.17L534.82 362.98L542.22 359.07L548.83 356.31L559.03 353.56L565.21 352.44L571.6 351.73L582.76 352.02L590.89 352.98L599.34 354.86L605.49 357.19L610.99 359.8L616.17 363.13L623.12 368.93L627.33 373.52L630.38 378.6L632.02 382.56L632.97 386.38L633.07 390.6L632.4 394.12L631.25 396.92L629.11 399.78L626.22 401.67L622.65 402.78L622.65 402.78Z" />
		<path id="path572" class="shp0" d="M544.19 399.58L543.12 399.34L541.97 397.79L540.18 394.46L537.85 391.27L535.3 389.09L531.44 387.07L528.24 386.24L525.34 386.1L521.87 386.63L521.09 386.43L520.84 385.37L521.38 384.31L523.51 382.57L526.78 380.97L529.39 380.29L532.73 380.14L536.46 380.97L539.21 382.66L541.2 384.69L542.64 386.97L543.57 390.06L544.43 398.91L544.19 399.58L544.19 399.58Z" />
		<path id="path576" class="shp1" d="M492.13 363.32L490.63 362.22L486.23 357.91L479.7 352.54L473.09 347.9L465.74 344.28L458.78 341.81L449.88 339.64L443.56 338.82L440.22 338.53L431.81 338.67L423.64 339.92L413.39 342.68L403.62 346.4L399.76 347.22L396.52 346.98L393.72 345.97L391.73 344.38L390.72 342.73L390.1 339.97L390.58 336.1L392.03 332.48L394.2 329.34L397.05 326.87L401.12 324.11L405.56 321.94L411.46 320.06L418.61 318.51L422.68 318.07L431.22 318.22L439.98 319.77L447.57 322.38L458.1 327.6L466.37 332.96L473.47 338.33L481.45 346.16L485.95 351.53L490.73 359.02L492.23 362.26L492.33 362.93L492.13 363.32L492.13 363.32Z" />
		<path id="path580" class="shp1" d="M526.06 360.71L525.68 360.47L527.03 357.33L532.11 350.22L541.78 339.74L548.88 334.13L557.48 328.47L566.85 323.53L576.14 320.19L583.21 318.8L586.69 318.36L593.94 318.51L598.19 319.33L601.23 320.63L604.13 322.47L606.16 324.55L607.6 327.11L608.15 329.38L608.04 332.1L606.73 335.09L604.71 337.71L601.33 339.59L595.96 341.18L590.45 341.71L568.26 343.02L560.09 344.28L554.49 345.73L547.09 348.19L541.63 350.51L533.66 355.01L526.74 360.32L526.06 360.71L526.06 360.71Z" />
		<path id="path584" class="shp1" d="M522.58 352.88L522.25 352.69L522.39 350.61L524.58 341.72L527.47 332.48L532.12 322.04L537.33 312.47L540.81 307.58L547.05 300.62L549.74 298.01L554.25 294.53L558.88 291.63L564.64 289.31L568.13 288.48L573.34 288.63L576.34 289.6L578.89 291.58L580.35 293.42L581.27 296.22L581.47 299.21L580.64 301.78L578.74 304.63L575.42 307.83L570.2 311.16L562.52 315.07L555.7 318.46L550.62 321.79L540.52 329.33L534.29 335.43L530.22 340.46L525.72 347.62L523.22 352.21L522.58 352.88L522.58 352.88Z" />
		<path id="path588" class="shp1" d="M493.14 352.59L492.23 351.67L487.54 344.27L483.92 339.49L477.1 332.38L468.26 325.13L458.43 318.9L442.21 310.15L438.28 307.24L435.82 304.54L434.08 301.25L433.4 298.78L433.5 295.54L434.81 292.59L436.64 290.75L438.92 289.45L441.38 288.78L444.85 288.63L449.5 289.6L455.54 292.5L461.3 296.12L469.17 303.04L475.07 309.47L481.6 318.32L485.51 325.08L488.56 332.05L491.17 340.27L493.2 348.68L493.44 351.87L493.14 352.59L493.14 352.59Z" />
		<path id="path592" class="shp2" d="M474.15 231.92L472.95 231.68L471.05 229.84L469.6 227.81L469.22 226.41L469.31 223.85L470.04 220.51L474.54 210.06L480.33 200.1L490.06 186.03L501.36 172.7L506.3 167.42L513.26 160.51L524.27 150.94L539.59 139.33L550.62 132.51L562.07 126.14L571.21 122.21L577.25 120.97L579.51 121.35L581.95 123.38L582.8 124.88L582.66 125.85L581.57 126.81L571.05 131.51L560.54 137.45L554.87 141.17L552.12 142.96L541.09 150.94L538.04 153.5L528.91 160.94L516.74 171.82L506.59 182.99L503.92 186.13L499.19 191.7L490.35 203.59L484.11 213.16L477 226.02L474.93 230.99L474.15 231.92Z" />
		<path id="path596" class="shp2" d="M458.78 224.23L456.89 224.14L455.39 222.97L446.48 212.99L447.71 207.79L447.57 205.67L446.8 204.17L442.16 198.8L433.6 189.23L413.44 167.47L391.97 144.26L383.86 135.12L381.15 132.33L379.55 129.9L379.22 127.83L379.84 123.62L382.17 115.6L385.94 106.22L390.58 96.93L395.08 89L399.72 82.04L409.72 68.85L415.96 62.02L423.64 54.64L429.1 50L437.23 43.75L448.87 36.35L461.15 29.98L470.96 25.91L478.65 23.31L483.14 22.34L487.49 22.19L489.9 22.87L491.6 24.17L499.86 33.16L502.33 36.02L510.63 45.3L515.38 50.57L535.44 72.43L539.59 76.67L541.97 79.53L560.68 99.54L562.32 100.56L563.92 100.75L567.53 100.07L569.71 100.18L571.21 101.19L574.25 104.48L576.05 106.79L578.04 109.11L578.27 110.37L577.45 112.51L575.99 116.07L574.74 116.66L568.98 118.45L556.42 124.11L548.74 128.31L530.37 140.49L521.23 147.75L509.29 158.48L499.06 168.77L491.6 177.58L486.87 183.53L479.47 193.73L472.07 205.62L468.31 212.63L465.98 217.9L464.49 222.44L463.95 222.97L462.26 223.36L460.32 223.61L458.78 224.23L458.78 224.23Z" />
		<path id="path600" class="shp2" d="M439.78 222.06L438.87 221.53L435.67 218.19L434.03 215.92L426.98 205.91L422.04 198.03L418.42 191.41L417.35 188.6L417.31 188.12L418.52 188.5L424.9 194.73L435.34 206.64L437.37 209.93L437.7 211.71L436.94 216.01L437.56 218.04L439.83 221.38L439.78 222.06L439.78 222.06Z" />
		<path id="path604" class="shp1" d="M452.98 188.26L449.64 188.17L445.93 187.15L441.87 184.97L437.85 181.79L432.63 176.27L426.55 168.35L422.34 161.33L420.11 155.82L418.85 151.08L418.47 146.63L418.94 142.62L420.16 137.93L423.01 132.03L422.87 130.59L420.4 126.72L414.8 119.46L411.98 115.41L406.52 108.25L405.46 106.07L405.81 104.28L408.13 100.27L410.15 97.42L411.36 97.18L412.27 97.71L419.09 106.07L450.71 147.12L459.74 159.16L464.64 165.39L468.26 170.18L468.64 171.29L468.55 172.69L464.35 179.75L461.15 183.67L458.59 185.84L455.74 187.44L452.98 188.26L452.98 188.26Z" />
		<path id="path608" class="shp2" d="M451.38 173.61L448.88 173.52L445.83 172.2L442.92 169.88L439.3 165.97L433.79 158.28L431.62 154.17L430.31 150.21L430.07 148.8L430.17 146.1L430.89 143.93L431.47 143.25L432.58 143.25L434.18 144.94L452.73 168.73L453.9 170.9L453.75 171.82L452.79 172.93L451.38 173.61L451.38 173.61Z" />
		<path id="path612" class="shp1" d="M471.54 167.81L470.47 167.28L459.84 148.28L448.15 128.02L433.79 101.92L423.07 81.66L422.81 80.2L423.78 78.27L426.83 74.65L428.24 73.34L429.68 72.04L430.89 71.69L432.15 72.33L435.91 75.95L438.23 78.41L466.57 108.01L471.35 112.74L471.88 112.84L471.59 111.87L463.9 99.6L443.07 67.83L440.9 63.96L440.9 62.41L442.49 60.43L447.71 56.51L449.94 55.6L451 55.79L455.78 59.71L458.54 62.41L500.74 102.78L518 119.17L518.96 120.68L518.71 121.89L516.01 124.06L511.09 127.24L509.73 127.59L508.33 126.96L505.72 124.39L496.97 115.4L492.8 111.29L489.33 107.53L486.72 104.81L472.8 90.26L465.11 81.9L463.51 81.03L463.95 82.34L466.13 86.05L474.34 98.96L484.25 114.93L488.84 121.89L492.95 128.41L498.26 136.68L498.67 138.22L497.99 139.57L491.6 145.53L490.54 146.06L489.42 145.81L487.25 143.83L475.41 131.31L468.45 123.62L446.65 101.04L445.49 100.28L445.39 100.81L446.69 103.61L461.16 127.88L477.82 157.51L478.46 159.59L477.72 161.09L472.89 166.99L471.54 167.81L471.54 167.81Z" />
		<path id="path616" class="shp2" d="M374.09 123.57L373.03 123.18L370.71 120.48L370.03 118.78L370.18 115.6L370.85 112.11L373.76 103.71L377.38 95.49L382.89 85.67L391.83 72.47L393.91 69.37L398.36 64.2L401.74 60L403.15 58.55L411.03 50.13L414.79 46.51L417.94 43.85L422.04 40.27L432.44 32.58L443.16 26.06L453.65 20.4L463.61 16.05L471.92 13.44L477.34 12.47L479.76 12.57L481.16 13.15L483.91 15.86L484.4 16.92L483.96 17.45L475.6 19.1L465.89 22.44L453.17 28.38L444.19 33.31L431.62 41.73L422.43 49.11L415.96 54.92L409.14 62.17L399.72 73.73L393.47 82.48L386.09 94.47L380.57 105.35L377.52 113.17L374.72 122.89L374.09 123.57L374.09 123.57Z" />
		<path id="path620" class="shp1" d="M526.2 114.58L521.81 113.9L517.95 112.46L514.12 110.14L506.15 103.18L503.39 100.02L503.05 99.11L503.54 98.14L505.67 96.69L510.84 93.94L512.14 93.84L513.34 94.52L515.96 97.08L518.47 99.4L521.62 101.43L524.67 102.21L526.32 101.87L527.55 100.9L528.05 99.11L527.27 96.93L524.82 94.08L522.09 91.76L516.31 88.13L508.81 84.51L495.66 78.94L483.62 73L476.57 68.22L472.8 64.49L469.9 60.58L468.31 56.66L467.63 53.09L467.87 49.75L468.73 46.81L470.62 43.9L473.19 41.58L476.28 40.12L480.68 39.16L485.32 39.16L488.94 39.98L493.96 42.01L500.59 46.37L505.53 50.86L506.59 52.6L506.11 53.71L502.82 55.6L498.66 57.33L497.22 57.44L495.42 56.33L491.9 53.18L488.37 51.15L485.17 50.33L483.05 50.71L481.79 51.83L481.21 53.37L481.35 55.12L482.36 57.05L484.93 59.65L489.86 62.99L495.57 66.04L498.27 67.05L499.57 67.54L500.98 68.36L514.28 73.92L521.24 77.4L528.14 81.61L532.49 85.09L535.69 88.42L538.43 92.34L539.93 95.53L540.9 99.45L541 102.54L540.48 105.25L539.02 107.95L536.89 110.47L533.99 112.46L530.55 113.9L527.95 114.43L526.2 114.58L526.2 114.58Z" />
		<path id="path624" class="shp2" d="M577.54 91.81L576.19 90.84L573.43 88.43L571.6 87.61L569.52 87.85L567.98 88.32L566.29 88.08L563.43 85.47L557.3 78.86L546.32 67.2L545.78 66L547.34 66.24L554.68 70.73L564.4 77.84L572.22 84.8L577.3 90.46L577.73 91.57L577.54 91.81L577.54 91.81Z" />
		<path id="path628" fill-rule="evenodd" class="shp0" d="M671.07 937.9C683 937.9 692.74 947.62 692.74 959.57C692.74 971.53 683 981.25 671.07 981.25C659.11 981.25 649.39 971.53 649.39 959.57C649.39 947.62 659.11 937.9 671.07 937.9ZM671.07 976.44C679.64 976.44 686.5 969.59 686.5 959.57C686.5 949.59 679.64 942.69 671.07 942.69C662.36 942.69 655.63 949.59 655.63 959.57C655.63 969.59 662.36 976.44 671.07 976.44ZM671.42 947.43C677.56 947.43 681.05 949.23 681.05 954.64C681.05 959.04 678.38 960.78 674.68 961.08L681.05 971.53L675.75 971.53L669.99 961.31L667.52 961.31L667.52 971.53L662.36 971.53L662.36 947.43L671.42 947.43ZM675.87 954.18C675.87 951.71 673.22 951.4 671.19 951.4L667.52 951.4L667.52 957.35L671.71 957.35C674.19 957.35 675.87 956.93 675.87 954.18Z" />
	</g>
</svg>